<svg xmlns="http://www.w3.org/2000/svg" viewBox="0 0 124 124" fill="none">
  <rect width="124" height="124" rx="16" fill="#0A0A0A"/>
  <path d="M16 93.8125C14.8954 93.8125 14 94.7079 14 95.8125V108C14 109.105 14.8954 110 16 110H42.5682C43.6727 110 44.5682 109.105 44.5682 108V95.8125C44.5682 94.7079 43.6727 93.8125 42.5682 93.8125H16Z" fill="#F6CBB5"/>
  <path d="M75.2833 72.1875C76.3879 72.1875 77.2833 71.2921 77.2833 70.1875V58C77.2833 56.8954 76.3879 56 75.2833 56H48.7152C47.6106 56 46.7152 56.8954 46.7152 58V70.1875C46.7152 71.2921 47.6106 72.1875 48.7152 72.1875H75.2833Z" fill="#F6CBB5"/>
  <path d="M81.4318 93.8125C80.3273 93.8125 79.4318 94.7079 79.4318 95.8125V108C79.4318 109.105 80.3273 110 81.4318 110H108C109.105 110 110 109.105 110 108V95.8125C110 94.7079 109.105 93.8125 108 93.8125H81.4318Z" fill="#F6CBB5"/>
  <path d="M58.9257 91.0928C60.0303 91.0928 60.9257 90.1974 60.9257 89.0928V76.9071C60.9257 75.8026 60.0303 74.9071 58.9257 74.9071H32.359C31.2544 74.9071 30.359 75.8026 30.359 76.9071V89.0928C30.359 90.1974 31.2544 91.0928 32.359 91.0928H58.9257Z" fill="#F6CBB5"/>
  <path d="M48.7152 93.8125C47.6106 93.8125 46.7152 94.7079 46.7152 95.8125V108C46.7152 109.105 47.6106 110 48.7152 110H75.2848C76.3893 110 77.2848 109.105 77.2848 108V95.8125C77.2848 94.7079 76.3893 93.8125 75.2848 93.8125H48.7152Z" fill="#F6CBB5"/>
  <path d="M91.6424 91.0928C92.7469 91.0928 93.6424 90.1974 93.6424 89.0928V76.9071C93.6424 75.8026 92.7469 74.9071 91.6424 74.9071H65.0728C63.9682 74.9071 63.0728 75.8026 63.0728 76.9071V89.0928C63.0728 90.1974 63.9682 91.0928 65.0728 91.0928H91.6424Z" fill="#F6CBB5"/>
  <path d="M48.244 48V22.67H53.344L62.83 35.25H60.45L69.664 22.67H74.764V48H69.494V28.484L71.602 28.96L61.844 41.54H61.164L51.746 28.96L53.514 28.484V48H48.244Z" fill="#FAEEE1"/>
</svg>
