<svg width="100" height="100" viewBox="0 0 100 100" fill="none" xmlns="http://www.w3.org/2000/svg">
<path d="M89.5762 11.5L78.3275 49L89.5762 86.5L52.0762 75.2514L14.5762 86.5L25.8248 49L14.5762 11.5L52.0762 22.7487L89.5762 11.5Z" fill="url(#paint0_linear_749_9480)"/>
<path d="M50 0L100 50L50 100L0 50L50 0Z" fill="url(#paint1_linear_749_9480)"/>
<g filter="url(#filter0_i_749_9480)">
<path d="M50 7L93 50L50 93L7 50L50 7Z" fill="black" fill-opacity="0.48"/>
</g>
<g filter="url(#filter1_d_749_9480)">
<path d="M50.1523 25L54.3214 31.8309L61.1523 36L54.3214 40.1691L50.1523 47L45.9832 40.1691L39.1523 36L45.9832 31.8309L50.1523 25Z" fill="url(#paint2_linear_749_9480)"/>
</g>
<path d="M19.5 45.5389L50 75.5L80.539 45.5L85.5 51.0909L50 86L14.5 51.0909L19.5 45.5389Z" fill="url(#paint3_linear_749_9480)"/>
<path d="M27.4092 36.9479L49.9998 59L72.6297 36.9091L77.5907 42.5L49.9998 69.5L22.4092 42.4999L27.4092 36.9479Z" fill="url(#paint4_linear_749_9480)"/>
<defs>
<filter id="filter0_i_749_9480" x="7" y="7" width="86" height="90" filterUnits="userSpaceOnUse" color-interpolation-filters="sRGB">
<feFlood flood-opacity="0" result="BackgroundImageFix"/>
<feBlend mode="normal" in="SourceGraphic" in2="BackgroundImageFix" result="shape"/>
<feColorMatrix in="SourceAlpha" type="matrix" values="0 0 0 0 0 0 0 0 0 0 0 0 0 0 0 0 0 0 127 0" result="hardAlpha"/>
<feOffset dy="4"/>
<feGaussianBlur stdDeviation="2"/>
<feComposite in2="hardAlpha" operator="arithmetic" k2="-1" k3="1"/>
<feColorMatrix type="matrix" values="0 0 0 0 0 0 0 0 0 0 0 0 0 0 0 0 0 0 0.25 0"/>
<feBlend mode="normal" in2="shape" result="effect1_innerShadow_749_9480"/>
</filter>
<filter id="filter1_d_749_9480" x="35.1523" y="25" width="30" height="30" filterUnits="userSpaceOnUse" color-interpolation-filters="sRGB">
<feFlood flood-opacity="0" result="BackgroundImageFix"/>
<feColorMatrix in="SourceAlpha" type="matrix" values="0 0 0 0 0 0 0 0 0 0 0 0 0 0 0 0 0 0 127 0" result="hardAlpha"/>
<feOffset dy="4"/>
<feGaussianBlur stdDeviation="2"/>
<feComposite in2="hardAlpha" operator="out"/>
<feColorMatrix type="matrix" values="0 0 0 0 0 0 0 0 0 0 0 0 0 0 0 0 0 0 0.25 0"/>
<feBlend mode="normal" in2="BackgroundImageFix" result="effect1_dropShadow_749_9480"/>
<feBlend mode="normal" in="SourceGraphic" in2="effect1_dropShadow_749_9480" result="shape"/>
</filter>
<linearGradient id="paint0_linear_749_9480" x1="20.5137" y1="14.3125" x2="82.0762" y2="84.625" gradientUnits="userSpaceOnUse">
<stop stop-color="#CCE8FE"/>
<stop offset="0.241554" stop-color="#CDA0FF"/>
<stop offset="0.4" stop-color="#8489F5"/>
<stop offset="0.713254" stop-color="#CDF1FF"/>
<stop offset="1" stop-color="#B591E9"/>
</linearGradient>
<linearGradient id="paint1_linear_749_9480" x1="7.91667" y1="3.75" x2="90" y2="97.5" gradientUnits="userSpaceOnUse">
<stop stop-color="#CCE8FE"/>
<stop offset="0.241554" stop-color="#CDA0FF"/>
<stop offset="0.4" stop-color="#8489F5"/>
<stop offset="0.713254" stop-color="#CDF1FF"/>
<stop offset="1" stop-color="#B591E9"/>
</linearGradient>
<linearGradient id="paint2_linear_749_9480" x1="40.894" y1="25.825" x2="58.9523" y2="46.45" gradientUnits="userSpaceOnUse">
<stop stop-color="#CCE8FE"/>
<stop offset="0.241554" stop-color="#CDA0FF"/>
<stop offset="0.4" stop-color="#8489F5"/>
<stop offset="0.713254" stop-color="#CDF1FF"/>
<stop offset="1" stop-color="#B591E9"/>
</linearGradient>
<linearGradient id="paint3_linear_749_9480" x1="20.1208" y1="47.0188" x2="46.9329" y2="100.703" gradientUnits="userSpaceOnUse">
<stop stop-color="#CCE8FE"/>
<stop offset="0.241554" stop-color="#CDA0FF"/>
<stop offset="0.4" stop-color="#8489F5"/>
<stop offset="0.713254" stop-color="#CDF1FF"/>
<stop offset="1" stop-color="#B591E9"/>
</linearGradient>
<linearGradient id="paint4_linear_749_9480" x1="26.7777" y1="38.1312" x2="48.8008" y2="80.7195" gradientUnits="userSpaceOnUse">
<stop stop-color="#CCE8FE"/>
<stop offset="0.241554" stop-color="#CDA0FF"/>
<stop offset="0.4" stop-color="#8489F5"/>
<stop offset="0.713254" stop-color="#CDF1FF"/>
<stop offset="1" stop-color="#B591E9"/>
</linearGradient>
</defs>
</svg>
