<svg width="100" height="100" viewBox="0 0 100 100" fill="none" xmlns="http://www.w3.org/2000/svg">
<path d="M87.5 4L76.2513 50L87.5 96L50 82.2016L12.5 96L23.7487 50L12.5 4L50 17.7984L87.5 4Z" fill="url(#paint0_linear_749_9487)"/>
<path d="M50 0L93.3013 25V75L50 100L6.69873 75V25L50 0Z" fill="url(#paint1_linear_749_9487)"/>
<g filter="url(#filter0_i_749_9487)">
<path d="M50 7L87.2391 28.5V71.5L50 93L12.7609 71.5V28.5L50 7Z" fill="black" fill-opacity="0.48"/>
</g>
<g filter="url(#filter1_d_749_9487)">
<path d="M49.5 34L55.3746 43.6254L65 49.5L55.3746 55.3746L49.5 65L43.6254 55.3746L34 49.5L43.6254 43.6254L49.5 34Z" fill="url(#paint2_linear_749_9487)"/>
</g>
<defs>
<filter id="filter0_i_749_9487" x="12.7607" y="7" width="74.4785" height="90" filterUnits="userSpaceOnUse" color-interpolation-filters="sRGB">
<feFlood flood-opacity="0" result="BackgroundImageFix"/>
<feBlend mode="normal" in="SourceGraphic" in2="BackgroundImageFix" result="shape"/>
<feColorMatrix in="SourceAlpha" type="matrix" values="0 0 0 0 0 0 0 0 0 0 0 0 0 0 0 0 0 0 127 0" result="hardAlpha"/>
<feOffset dy="4"/>
<feGaussianBlur stdDeviation="2"/>
<feComposite in2="hardAlpha" operator="arithmetic" k2="-1" k3="1"/>
<feColorMatrix type="matrix" values="0 0 0 0 0 0 0 0 0 0 0 0 0 0 0 0 0 0 0.25 0"/>
<feBlend mode="normal" in2="shape" result="effect1_innerShadow_749_9487"/>
</filter>
<filter id="filter1_d_749_9487" x="30" y="34" width="39" height="39" filterUnits="userSpaceOnUse" color-interpolation-filters="sRGB">
<feFlood flood-opacity="0" result="BackgroundImageFix"/>
<feColorMatrix in="SourceAlpha" type="matrix" values="0 0 0 0 0 0 0 0 0 0 0 0 0 0 0 0 0 0 127 0" result="hardAlpha"/>
<feOffset dy="4"/>
<feGaussianBlur stdDeviation="2"/>
<feComposite in2="hardAlpha" operator="out"/>
<feColorMatrix type="matrix" values="0 0 0 0 0 0 0 0 0 0 0 0 0 0 0 0 0 0 0.25 0"/>
<feBlend mode="normal" in2="BackgroundImageFix" result="effect1_dropShadow_749_9487"/>
<feBlend mode="normal" in="SourceGraphic" in2="effect1_dropShadow_749_9487" result="shape"/>
</filter>
<linearGradient id="paint0_linear_749_9487" x1="18.4375" y1="7.45" x2="94.4282" y2="78.2039" gradientUnits="userSpaceOnUse">
<stop stop-color="#CCE8FE"/>
<stop offset="0.241554" stop-color="#CDA0FF"/>
<stop offset="0.4" stop-color="#8489F5"/>
<stop offset="0.713254" stop-color="#CDF1FF"/>
<stop offset="1" stop-color="#B591E9"/>
</linearGradient>
<linearGradient id="paint1_linear_749_9487" x1="7.91667" y1="3.75" x2="90" y2="97.5" gradientUnits="userSpaceOnUse">
<stop stop-color="#CCE8FE"/>
<stop offset="0.241554" stop-color="#CDA0FF"/>
<stop offset="0.4" stop-color="#8489F5"/>
<stop offset="0.713254" stop-color="#CDF1FF"/>
<stop offset="1" stop-color="#B591E9"/>
</linearGradient>
<linearGradient id="paint2_linear_749_9487" x1="36.4542" y1="35.1625" x2="61.9" y2="64.225" gradientUnits="userSpaceOnUse">
<stop stop-color="#CCE8FE"/>
<stop offset="0.241554" stop-color="#CDA0FF"/>
<stop offset="0.4" stop-color="#8489F5"/>
<stop offset="0.713254" stop-color="#CDF1FF"/>
<stop offset="1" stop-color="#B591E9"/>
</linearGradient>
</defs>
</svg>
