<svg width="100" height="100" viewBox="0 0 100 100" fill="none" xmlns="http://www.w3.org/2000/svg">
<path d="M100 49.1622L71.4341 61.5372L75 92.4634L50 73.9122L25 92.4634L28.5659 61.5372L0 49.1622L28.5659 36.7872L25 5.8609L50 24.4122L75 5.8609L71.4341 36.7872L100 49.1622Z" fill="url(#paint0_linear_749_9534)"/>
<path d="M96.4841 24.8646L76.5684 49.7291L96.4841 74.5937L63.2833 71.0471L49.9981 99.4583L36.713 71.0471L3.51221 74.5937L23.4279 49.7291L3.51221 24.8646L36.713 28.4111L49.9981 0L63.2833 28.4111L96.4841 24.8646Z" fill="url(#paint1_linear_749_9534)"/>
<path d="M49.9999 3.43298L90.0937 26.5811V72.8774L49.9999 96.0256L9.90614 72.8774V26.5811L49.9999 3.43298Z" fill="url(#paint2_linear_749_9534)"/>
<g filter="url(#filter0_i_749_9534)">
<path d="M50.0004 9.91437L84.481 29.8218V69.6366L50.0004 89.544L15.5197 69.6366V29.8218L50.0004 9.91437Z" fill="black" fill-opacity="0.48"/>
</g>
<g filter="url(#filter1_d_749_9534)">
<path d="M49.7725 25.655L54.5101 33.1299L62.2725 37.6921L54.5101 42.2542L49.7725 49.7291L45.0348 42.2542L37.2725 37.6921L45.0348 33.1299L49.7725 25.655Z" fill="url(#paint3_linear_749_9534)"/>
</g>
<g filter="url(#filter2_d_749_9534)">
<path d="M34.9585 46.0254L39.6961 53.5003L47.4585 58.0624L39.6961 62.6246L34.9585 70.0995L30.2209 62.6246L22.4585 58.0624L30.2209 53.5003L34.9585 46.0254Z" fill="url(#paint4_linear_749_9534)"/>
</g>
<g filter="url(#filter3_d_749_9534)">
<path d="M65.5137 46.0254L70.2513 53.5003L78.0137 58.0624L70.2513 62.6246L65.5137 70.0995L60.7761 62.6246L53.0137 58.0624L60.7761 53.5003L65.5137 46.0254Z" fill="url(#paint5_linear_749_9534)"/>
</g>
<defs>
<filter id="filter0_i_749_9534" x="15.5195" y="9.91437" width="68.9614" height="83.6296" filterUnits="userSpaceOnUse" color-interpolation-filters="sRGB">
<feFlood flood-opacity="0" result="BackgroundImageFix"/>
<feBlend mode="normal" in="SourceGraphic" in2="BackgroundImageFix" result="shape"/>
<feColorMatrix in="SourceAlpha" type="matrix" values="0 0 0 0 0 0 0 0 0 0 0 0 0 0 0 0 0 0 127 0" result="hardAlpha"/>
<feOffset dy="4"/>
<feGaussianBlur stdDeviation="2"/>
<feComposite in2="hardAlpha" operator="arithmetic" k2="-1" k3="1"/>
<feColorMatrix type="matrix" values="0 0 0 0 0 0 0 0 0 0 0 0 0 0 0 0 0 0 0.25 0"/>
<feBlend mode="normal" in2="shape" result="effect1_innerShadow_749_9534"/>
</filter>
<filter id="filter1_d_749_9534" x="33.2725" y="25.655" width="33" height="32.0741" filterUnits="userSpaceOnUse" color-interpolation-filters="sRGB">
<feFlood flood-opacity="0" result="BackgroundImageFix"/>
<feColorMatrix in="SourceAlpha" type="matrix" values="0 0 0 0 0 0 0 0 0 0 0 0 0 0 0 0 0 0 127 0" result="hardAlpha"/>
<feOffset dy="4"/>
<feGaussianBlur stdDeviation="2"/>
<feComposite in2="hardAlpha" operator="out"/>
<feColorMatrix type="matrix" values="0 0 0 0 0 0 0 0 0 0 0 0 0 0 0 0 0 0 0.25 0"/>
<feBlend mode="normal" in2="BackgroundImageFix" result="effect1_dropShadow_749_9534"/>
<feBlend mode="normal" in="SourceGraphic" in2="effect1_dropShadow_749_9534" result="shape"/>
</filter>
<filter id="filter2_d_749_9534" x="18.4585" y="46.0254" width="33" height="32.0741" filterUnits="userSpaceOnUse" color-interpolation-filters="sRGB">
<feFlood flood-opacity="0" result="BackgroundImageFix"/>
<feColorMatrix in="SourceAlpha" type="matrix" values="0 0 0 0 0 0 0 0 0 0 0 0 0 0 0 0 0 0 127 0" result="hardAlpha"/>
<feOffset dy="4"/>
<feGaussianBlur stdDeviation="2"/>
<feComposite in2="hardAlpha" operator="out"/>
<feColorMatrix type="matrix" values="0 0 0 0 0 0 0 0 0 0 0 0 0 0 0 0 0 0 0.25 0"/>
<feBlend mode="normal" in2="BackgroundImageFix" result="effect1_dropShadow_749_9534"/>
<feBlend mode="normal" in="SourceGraphic" in2="effect1_dropShadow_749_9534" result="shape"/>
</filter>
<filter id="filter3_d_749_9534" x="49.0137" y="46.0254" width="33" height="32.0741" filterUnits="userSpaceOnUse" color-interpolation-filters="sRGB">
<feFlood flood-opacity="0" result="BackgroundImageFix"/>
<feColorMatrix in="SourceAlpha" type="matrix" values="0 0 0 0 0 0 0 0 0 0 0 0 0 0 0 0 0 0 127 0" result="hardAlpha"/>
<feOffset dy="4"/>
<feGaussianBlur stdDeviation="2"/>
<feComposite in2="hardAlpha" operator="out"/>
<feColorMatrix type="matrix" values="0 0 0 0 0 0 0 0 0 0 0 0 0 0 0 0 0 0 0.25 0"/>
<feBlend mode="normal" in2="BackgroundImageFix" result="effect1_dropShadow_749_9534"/>
<feBlend mode="normal" in="SourceGraphic" in2="effect1_dropShadow_749_9534" result="shape"/>
</filter>
<linearGradient id="paint0_linear_749_9534" x1="7.91667" y1="9.10849" x2="76.9705" y2="100.178" gradientUnits="userSpaceOnUse">
<stop stop-color="#CCE8FE"/>
<stop offset="0.241554" stop-color="#CDA0FF"/>
<stop offset="0.4" stop-color="#8489F5"/>
<stop offset="0.713254" stop-color="#CDF1FF"/>
<stop offset="1" stop-color="#B591E9"/>
</linearGradient>
<linearGradient id="paint1_linear_749_9534" x1="10.8725" y1="3.72968" x2="93.057" y2="91.4736" gradientUnits="userSpaceOnUse">
<stop stop-color="#CCE8FE"/>
<stop offset="0.241554" stop-color="#CDA0FF"/>
<stop offset="0.4" stop-color="#8489F5"/>
<stop offset="0.713254" stop-color="#CDF1FF"/>
<stop offset="1" stop-color="#B591E9"/>
</linearGradient>
<linearGradient id="paint2_linear_749_9534" x1="11.0339" y1="6.9052" x2="87.037" y2="93.7108" gradientUnits="userSpaceOnUse">
<stop stop-color="#CCE8FE"/>
<stop offset="0.241554" stop-color="#CDA0FF"/>
<stop offset="0.4" stop-color="#8489F5"/>
<stop offset="0.713254" stop-color="#CDF1FF"/>
<stop offset="1" stop-color="#B591E9"/>
</linearGradient>
<linearGradient id="paint3_linear_749_9534" x1="39.2516" y1="26.5578" x2="58.9004" y2="49.8625" gradientUnits="userSpaceOnUse">
<stop stop-color="#CCE8FE"/>
<stop offset="0.241554" stop-color="#CDA0FF"/>
<stop offset="0.4" stop-color="#8489F5"/>
<stop offset="0.713254" stop-color="#CDF1FF"/>
<stop offset="1" stop-color="#B591E9"/>
</linearGradient>
<linearGradient id="paint4_linear_749_9534" x1="24.4377" y1="46.9282" x2="44.0865" y2="70.2328" gradientUnits="userSpaceOnUse">
<stop stop-color="#CCE8FE"/>
<stop offset="0.241554" stop-color="#CDA0FF"/>
<stop offset="0.4" stop-color="#8489F5"/>
<stop offset="0.713254" stop-color="#CDF1FF"/>
<stop offset="1" stop-color="#B591E9"/>
</linearGradient>
<linearGradient id="paint5_linear_749_9534" x1="54.9928" y1="46.9282" x2="74.6417" y2="70.2328" gradientUnits="userSpaceOnUse">
<stop stop-color="#CCE8FE"/>
<stop offset="0.241554" stop-color="#CDA0FF"/>
<stop offset="0.4" stop-color="#8489F5"/>
<stop offset="0.713254" stop-color="#CDF1FF"/>
<stop offset="1" stop-color="#B591E9"/>
</linearGradient>
</defs>
</svg>
