<svg width="100" height="100" viewBox="0 0 100 100" fill="none" xmlns="http://www.w3.org/2000/svg">
<path d="M87.5 4L76.2513 50L87.5 96L50 82.2016L12.5 96L23.7487 50L12.5 4L50 17.7984L87.5 4Z" fill="url(#paint0_linear_426_4187)"/>
<path d="M50 0L93.3013 25V75L50 100L6.69873 75V25L50 0Z" fill="url(#paint1_linear_426_4187)"/>
<g filter="url(#filter0_i_426_4187)">
<path d="M50 7L87.2391 28.5V71.5L50 93L12.7609 71.5V28.5L50 7Z" fill="black" fill-opacity="0.48"/>
</g>
<g filter="url(#filter1_d_426_4187)">
<path d="M49.5 34L55.3746 43.6254L65 49.5L55.3746 55.3746L49.5 65L43.6254 55.3746L34 49.5L43.6254 43.6254L49.5 34Z" fill="url(#paint2_linear_426_4187)"/>
</g>
<defs>
<filter id="filter0_i_426_4187" x="12.761" y="7" width="74.478" height="90" filterUnits="userSpaceOnUse" color-interpolation-filters="sRGB">
<feFlood flood-opacity="0" result="BackgroundImageFix"/>
<feBlend mode="normal" in="SourceGraphic" in2="BackgroundImageFix" result="shape"/>
<feColorMatrix in="SourceAlpha" type="matrix" values="0 0 0 0 0 0 0 0 0 0 0 0 0 0 0 0 0 0 127 0" result="hardAlpha"/>
<feOffset dy="4"/>
<feGaussianBlur stdDeviation="2"/>
<feComposite in2="hardAlpha" operator="arithmetic" k2="-1" k3="1"/>
<feColorMatrix type="matrix" values="0 0 0 0 0 0 0 0 0 0 0 0 0 0 0 0 0 0 0.25 0"/>
<feBlend mode="normal" in2="shape" result="effect1_innerShadow_426_4187"/>
</filter>
<filter id="filter1_d_426_4187" x="30" y="34" width="39" height="39" filterUnits="userSpaceOnUse" color-interpolation-filters="sRGB">
<feFlood flood-opacity="0" result="BackgroundImageFix"/>
<feColorMatrix in="SourceAlpha" type="matrix" values="0 0 0 0 0 0 0 0 0 0 0 0 0 0 0 0 0 0 127 0" result="hardAlpha"/>
<feOffset dy="4"/>
<feGaussianBlur stdDeviation="2"/>
<feComposite in2="hardAlpha" operator="out"/>
<feColorMatrix type="matrix" values="0 0 0 0 0 0 0 0 0 0 0 0 0 0 0 0 0 0 0.25 0"/>
<feBlend mode="normal" in2="BackgroundImageFix" result="effect1_dropShadow_426_4187"/>
<feBlend mode="normal" in="SourceGraphic" in2="effect1_dropShadow_426_4187" result="shape"/>
</filter>
<linearGradient id="paint0_linear_426_4187" x1="14.375" y1="5.91667" x2="99.108" y2="82.4939" gradientUnits="userSpaceOnUse">
<stop stop-color="#BC6554"/>
<stop offset="0.195" stop-color="#CA7561"/>
<stop offset="0.485" stop-color="#E2AA9D"/>
<stop offset="0.73" stop-color="#A1503D"/>
<stop offset="0.955" stop-color="#AA5946"/>
</linearGradient>
<linearGradient id="paint1_linear_426_4187" x1="2.5" y1="2.08333" x2="94.5833" y2="104.167" gradientUnits="userSpaceOnUse">
<stop stop-color="#BC6554"/>
<stop offset="0.195" stop-color="#CA7561"/>
<stop offset="0.485" stop-color="#E2AA9D"/>
<stop offset="0.73" stop-color="#A1503D"/>
<stop offset="0.955" stop-color="#AA5946"/>
</linearGradient>
<linearGradient id="paint2_linear_426_4187" x1="34.775" y1="34.6458" x2="63.3208" y2="66.2917" gradientUnits="userSpaceOnUse">
<stop stop-color="#BC6554"/>
<stop offset="0.195" stop-color="#CA7561"/>
<stop offset="0.485" stop-color="#E2AA9D"/>
<stop offset="0.73" stop-color="#A1503D"/>
<stop offset="0.955" stop-color="#AA5946"/>
</linearGradient>
</defs>
</svg>
