<svg width="100" height="100" viewBox="0 0 100 100" fill="none" xmlns="http://www.w3.org/2000/svg">
<path d="M89.5762 11.5L78.3275 49L89.5762 86.5L52.0762 75.2514L14.5762 86.5L25.8248 49L14.5762 11.5L52.0762 22.7487L89.5762 11.5Z" fill="url(#paint0_linear_749_9817)"/>
<path d="M50 0L100 50L50 100L0 50L50 0Z" fill="url(#paint1_linear_749_9817)"/>
<g filter="url(#filter0_i_749_9817)">
<path d="M50 7L93 50L50 93L7 50L50 7Z" fill="black" fill-opacity="0.48"/>
</g>
<g filter="url(#filter1_d_749_9817)">
<path d="M50.1523 25L54.3214 31.8309L61.1523 36L54.3214 40.1691L50.1523 47L45.9832 40.1691L39.1523 36L45.9832 31.8309L50.1523 25Z" fill="url(#paint2_linear_749_9817)"/>
</g>
<path d="M19.5 45.5389L50 75.5L80.539 45.5L85.5 51.0909L50 86L14.5 51.0909L19.5 45.5389Z" fill="url(#paint3_linear_749_9817)"/>
<path d="M27.4092 36.9479L49.9998 59L72.6297 36.9091L77.5907 42.5L49.9998 69.5L22.4092 42.4999L27.4092 36.9479Z" fill="url(#paint4_linear_749_9817)"/>
<defs>
<filter id="filter0_i_749_9817" x="7" y="7" width="86" height="90" filterUnits="userSpaceOnUse" color-interpolation-filters="sRGB">
<feFlood flood-opacity="0" result="BackgroundImageFix"/>
<feBlend mode="normal" in="SourceGraphic" in2="BackgroundImageFix" result="shape"/>
<feColorMatrix in="SourceAlpha" type="matrix" values="0 0 0 0 0 0 0 0 0 0 0 0 0 0 0 0 0 0 127 0" result="hardAlpha"/>
<feOffset dy="4"/>
<feGaussianBlur stdDeviation="2"/>
<feComposite in2="hardAlpha" operator="arithmetic" k2="-1" k3="1"/>
<feColorMatrix type="matrix" values="0 0 0 0 0 0 0 0 0 0 0 0 0 0 0 0 0 0 0.25 0"/>
<feBlend mode="normal" in2="shape" result="effect1_innerShadow_749_9817"/>
</filter>
<filter id="filter1_d_749_9817" x="35.1523" y="25" width="30" height="30" filterUnits="userSpaceOnUse" color-interpolation-filters="sRGB">
<feFlood flood-opacity="0" result="BackgroundImageFix"/>
<feColorMatrix in="SourceAlpha" type="matrix" values="0 0 0 0 0 0 0 0 0 0 0 0 0 0 0 0 0 0 127 0" result="hardAlpha"/>
<feOffset dy="4"/>
<feGaussianBlur stdDeviation="2"/>
<feComposite in2="hardAlpha" operator="out"/>
<feColorMatrix type="matrix" values="0 0 0 0 0 0 0 0 0 0 0 0 0 0 0 0 0 0 0.25 0"/>
<feBlend mode="normal" in2="BackgroundImageFix" result="effect1_dropShadow_749_9817"/>
<feBlend mode="normal" in="SourceGraphic" in2="effect1_dropShadow_749_9817" result="shape"/>
</filter>
<linearGradient id="paint0_linear_749_9817" x1="74.8887" y1="14.625" x2="17.7012" y2="86.5" gradientUnits="userSpaceOnUse">
<stop stop-color="#FDFFFE"/>
<stop offset="0.23" stop-color="#7ABBAC"/>
<stop offset="0.39" stop-color="#B1FFEF"/>
<stop offset="0.535" stop-color="#8AD2C3"/>
<stop offset="0.745" stop-color="#CFFEF4"/>
<stop offset="0.915" stop-color="#6CA196"/>
<stop offset="1" stop-color="#35544E"/>
</linearGradient>
<linearGradient id="paint1_linear_749_9817" x1="80.4167" y1="4.16666" x2="4.16667" y2="100" gradientUnits="userSpaceOnUse">
<stop stop-color="#FDFFFE"/>
<stop offset="0.23" stop-color="#7ABBAC"/>
<stop offset="0.39" stop-color="#B1FFEF"/>
<stop offset="0.535" stop-color="#8AD2C3"/>
<stop offset="0.745" stop-color="#CFFEF4"/>
<stop offset="0.915" stop-color="#6CA196"/>
<stop offset="1" stop-color="#35544E"/>
</linearGradient>
<linearGradient id="paint2_linear_749_9817" x1="56.844" y1="25.9167" x2="40.069" y2="47" gradientUnits="userSpaceOnUse">
<stop stop-color="#FDFFFE"/>
<stop offset="0.23" stop-color="#7ABBAC"/>
<stop offset="0.39" stop-color="#B1FFEF"/>
<stop offset="0.535" stop-color="#8AD2C3"/>
<stop offset="0.745" stop-color="#CFFEF4"/>
<stop offset="0.915" stop-color="#6CA196"/>
<stop offset="1" stop-color="#35544E"/>
</linearGradient>
<linearGradient id="paint3_linear_749_9817" x1="71.5958" y1="47.1875" x2="47.7423" y2="99.7447" gradientUnits="userSpaceOnUse">
<stop stop-color="#FDFFFE"/>
<stop offset="0.23" stop-color="#7ABBAC"/>
<stop offset="0.39" stop-color="#B1FFEF"/>
<stop offset="0.535" stop-color="#8AD2C3"/>
<stop offset="0.745" stop-color="#CFFEF4"/>
<stop offset="0.915" stop-color="#6CA196"/>
<stop offset="1" stop-color="#35544E"/>
</linearGradient>
<linearGradient id="paint4_linear_749_9817" x1="66.7843" y1="38.267" x2="47.1512" y2="80.0464" gradientUnits="userSpaceOnUse">
<stop stop-color="#FDFFFE"/>
<stop offset="0.23" stop-color="#7ABBAC"/>
<stop offset="0.39" stop-color="#B1FFEF"/>
<stop offset="0.535" stop-color="#8AD2C3"/>
<stop offset="0.745" stop-color="#CFFEF4"/>
<stop offset="0.915" stop-color="#6CA196"/>
<stop offset="1" stop-color="#35544E"/>
</linearGradient>
</defs>
</svg>
