<svg width="100" height="100" viewBox="0 0 100 100" fill="none" xmlns="http://www.w3.org/2000/svg">
<path d="M87.5 4L76.2513 50L87.5 96L50 82.2016L12.5 96L23.7487 50L12.5 4L50 17.7984L87.5 4Z" fill="url(#paint0_linear_749_9850)"/>
<path d="M50 0L93.3013 25V75L50 100L6.69873 75V25L50 0Z" fill="url(#paint1_linear_749_9850)"/>
<g filter="url(#filter0_i_749_9850)">
<path d="M50 7L87.2391 28.5V71.5L50 93L12.7609 71.5V28.5L50 7Z" fill="black" fill-opacity="0.48"/>
</g>
<path d="M17.0762 60L50.0762 77.8851L83.0762 60V68.1149L50.0762 86L17.0762 68.1149V60Z" fill="url(#paint2_linear_749_9850)"/>
<path d="M17.0762 46L50.0762 63.8851L83.0762 46V54.1149L50.0762 72L17.0762 54.1149V46Z" fill="url(#paint3_linear_749_9850)"/>
<path d="M17.0762 32L50.0762 49.8851L83.0762 32V40.1149L50.0762 58L17.0762 40.1149V32Z" fill="url(#paint4_linear_749_9850)"/>
<g filter="url(#filter1_d_749_9850)">
<path d="M50.5 18L55.0481 25.1414L62.5 29.5L55.0481 33.8586L50.5 41L45.9519 33.8586L38.5 29.5L45.9519 25.1414L50.5 18Z" fill="url(#paint5_linear_749_9850)"/>
</g>
<defs>
<filter id="filter0_i_749_9850" x="12.7607" y="7" width="74.4785" height="90" filterUnits="userSpaceOnUse" color-interpolation-filters="sRGB">
<feFlood flood-opacity="0" result="BackgroundImageFix"/>
<feBlend mode="normal" in="SourceGraphic" in2="BackgroundImageFix" result="shape"/>
<feColorMatrix in="SourceAlpha" type="matrix" values="0 0 0 0 0 0 0 0 0 0 0 0 0 0 0 0 0 0 127 0" result="hardAlpha"/>
<feOffset dy="4"/>
<feGaussianBlur stdDeviation="2"/>
<feComposite in2="hardAlpha" operator="arithmetic" k2="-1" k3="1"/>
<feColorMatrix type="matrix" values="0 0 0 0 0 0 0 0 0 0 0 0 0 0 0 0 0 0 0.25 0"/>
<feBlend mode="normal" in2="shape" result="effect1_innerShadow_749_9850"/>
</filter>
<filter id="filter1_d_749_9850" x="34.5" y="18" width="32" height="31" filterUnits="userSpaceOnUse" color-interpolation-filters="sRGB">
<feFlood flood-opacity="0" result="BackgroundImageFix"/>
<feColorMatrix in="SourceAlpha" type="matrix" values="0 0 0 0 0 0 0 0 0 0 0 0 0 0 0 0 0 0 127 0" result="hardAlpha"/>
<feOffset dy="4"/>
<feGaussianBlur stdDeviation="2"/>
<feComposite in2="hardAlpha" operator="out"/>
<feColorMatrix type="matrix" values="0 0 0 0 0 0 0 0 0 0 0 0 0 0 0 0 0 0 0.25 0"/>
<feBlend mode="normal" in2="BackgroundImageFix" result="effect1_dropShadow_749_9850"/>
<feBlend mode="normal" in="SourceGraphic" in2="effect1_dropShadow_749_9850" result="shape"/>
</filter>
<linearGradient id="paint0_linear_749_9850" x1="72.8125" y1="7.83333" x2="0.842903" y2="81.5727" gradientUnits="userSpaceOnUse">
<stop stop-color="#FDFFFE"/>
<stop offset="0.23" stop-color="#7ABBAC"/>
<stop offset="0.39" stop-color="#B1FFEF"/>
<stop offset="0.535" stop-color="#8AD2C3"/>
<stop offset="0.745" stop-color="#CFFEF4"/>
<stop offset="0.915" stop-color="#6CA196"/>
<stop offset="1" stop-color="#35544E"/>
</linearGradient>
<linearGradient id="paint1_linear_749_9850" x1="80.4167" y1="4.16666" x2="4.16667" y2="100" gradientUnits="userSpaceOnUse">
<stop stop-color="#FDFFFE"/>
<stop offset="0.23" stop-color="#7ABBAC"/>
<stop offset="0.39" stop-color="#B1FFEF"/>
<stop offset="0.535" stop-color="#8AD2C3"/>
<stop offset="0.745" stop-color="#CFFEF4"/>
<stop offset="0.915" stop-color="#6CA196"/>
<stop offset="1" stop-color="#35544E"/>
</linearGradient>
<linearGradient id="paint2_linear_749_9850" x1="70.1512" y1="61.0833" x2="58.5381" y2="98.1338" gradientUnits="userSpaceOnUse">
<stop stop-color="#FDFFFE"/>
<stop offset="0.23" stop-color="#7ABBAC"/>
<stop offset="0.39" stop-color="#B1FFEF"/>
<stop offset="0.535" stop-color="#8AD2C3"/>
<stop offset="0.745" stop-color="#CFFEF4"/>
<stop offset="0.915" stop-color="#6CA196"/>
<stop offset="1" stop-color="#35544E"/>
</linearGradient>
<linearGradient id="paint3_linear_749_9850" x1="70.1512" y1="47.0833" x2="58.5381" y2="84.1338" gradientUnits="userSpaceOnUse">
<stop stop-color="#FDFFFE"/>
<stop offset="0.23" stop-color="#7ABBAC"/>
<stop offset="0.39" stop-color="#B1FFEF"/>
<stop offset="0.535" stop-color="#8AD2C3"/>
<stop offset="0.745" stop-color="#CFFEF4"/>
<stop offset="0.915" stop-color="#6CA196"/>
<stop offset="1" stop-color="#35544E"/>
</linearGradient>
<linearGradient id="paint4_linear_749_9850" x1="70.1512" y1="33.0833" x2="58.5381" y2="70.1338" gradientUnits="userSpaceOnUse">
<stop stop-color="#FDFFFE"/>
<stop offset="0.23" stop-color="#7ABBAC"/>
<stop offset="0.39" stop-color="#B1FFEF"/>
<stop offset="0.535" stop-color="#8AD2C3"/>
<stop offset="0.745" stop-color="#CFFEF4"/>
<stop offset="0.915" stop-color="#6CA196"/>
<stop offset="1" stop-color="#35544E"/>
</linearGradient>
<linearGradient id="paint5_linear_749_9850" x1="57.8" y1="18.9583" x2="40.4442" y2="41.72" gradientUnits="userSpaceOnUse">
<stop stop-color="#FDFFFE"/>
<stop offset="0.23" stop-color="#7ABBAC"/>
<stop offset="0.39" stop-color="#B1FFEF"/>
<stop offset="0.535" stop-color="#8AD2C3"/>
<stop offset="0.745" stop-color="#CFFEF4"/>
<stop offset="0.915" stop-color="#6CA196"/>
<stop offset="1" stop-color="#35544E"/>
</linearGradient>
</defs>
</svg>
