<svg width="100" height="100" viewBox="0 0 100 100" fill="none" xmlns="http://www.w3.org/2000/svg">
<path d="M87.5 4L76.2513 50L87.5 96L50 82.2016L12.5 96L23.7487 50L12.5 4L50 17.7984L87.5 4Z" fill="url(#paint0_linear_426_4191)"/>
<path d="M50 0L93.3013 25V75L50 100L6.69873 75V25L50 0Z" fill="url(#paint1_linear_426_4191)"/>
<g filter="url(#filter0_i_426_4191)">
<path d="M50 7L87.2391 28.5V71.5L50 93L12.7609 71.5V28.5L50 7Z" fill="black" fill-opacity="0.48"/>
</g>
<path d="M17.0762 60L50.0762 77.8851L83.0762 60V68.1149L50.0762 86L17.0762 68.1149V60Z" fill="url(#paint2_linear_426_4191)"/>
<path d="M17.0762 46L50.0762 63.8851L83.0762 46V54.1149L50.0762 72L17.0762 54.1149V46Z" fill="url(#paint3_linear_426_4191)"/>
<path d="M17.0762 32L50.0762 49.8851L83.0762 32V40.1149L50.0762 58L17.0762 40.1149V32Z" fill="url(#paint4_linear_426_4191)"/>
<g filter="url(#filter1_d_426_4191)">
<path d="M50.5 18L55.0481 25.1414L62.5 29.5L55.0481 33.8586L50.5 41L45.9519 33.8586L38.5 29.5L45.9519 25.1414L50.5 18Z" fill="url(#paint5_linear_426_4191)"/>
</g>
<defs>
<filter id="filter0_i_426_4191" x="12.7607" y="7" width="74.4785" height="90" filterUnits="userSpaceOnUse" color-interpolation-filters="sRGB">
<feFlood flood-opacity="0" result="BackgroundImageFix"/>
<feBlend mode="normal" in="SourceGraphic" in2="BackgroundImageFix" result="shape"/>
<feColorMatrix in="SourceAlpha" type="matrix" values="0 0 0 0 0 0 0 0 0 0 0 0 0 0 0 0 0 0 127 0" result="hardAlpha"/>
<feOffset dy="4"/>
<feGaussianBlur stdDeviation="2"/>
<feComposite in2="hardAlpha" operator="arithmetic" k2="-1" k3="1"/>
<feColorMatrix type="matrix" values="0 0 0 0 0 0 0 0 0 0 0 0 0 0 0 0 0 0 0.25 0"/>
<feBlend mode="normal" in2="shape" result="effect1_innerShadow_426_4191"/>
</filter>
<filter id="filter1_d_426_4191" x="34.5" y="18" width="32" height="31" filterUnits="userSpaceOnUse" color-interpolation-filters="sRGB">
<feFlood flood-opacity="0" result="BackgroundImageFix"/>
<feColorMatrix in="SourceAlpha" type="matrix" values="0 0 0 0 0 0 0 0 0 0 0 0 0 0 0 0 0 0 127 0" result="hardAlpha"/>
<feOffset dy="4"/>
<feGaussianBlur stdDeviation="2"/>
<feComposite in2="hardAlpha" operator="out"/>
<feColorMatrix type="matrix" values="0 0 0 0 0 0 0 0 0 0 0 0 0 0 0 0 0 0 0.25 0"/>
<feBlend mode="normal" in2="BackgroundImageFix" result="effect1_dropShadow_426_4191"/>
<feBlend mode="normal" in="SourceGraphic" in2="effect1_dropShadow_426_4191" result="shape"/>
</filter>
<linearGradient id="paint0_linear_426_4191" x1="14.375" y1="5.91667" x2="99.108" y2="82.4939" gradientUnits="userSpaceOnUse">
<stop stop-color="#BC6554"/>
<stop offset="0.195" stop-color="#CA7561"/>
<stop offset="0.485" stop-color="#E2AA9D"/>
<stop offset="0.73" stop-color="#A1503D"/>
<stop offset="0.955" stop-color="#AA5946"/>
</linearGradient>
<linearGradient id="paint1_linear_426_4191" x1="2.5" y1="2.08333" x2="94.5833" y2="104.167" gradientUnits="userSpaceOnUse">
<stop stop-color="#BC6554"/>
<stop offset="0.195" stop-color="#CA7561"/>
<stop offset="0.485" stop-color="#E2AA9D"/>
<stop offset="0.73" stop-color="#A1503D"/>
<stop offset="0.955" stop-color="#AA5946"/>
</linearGradient>
<linearGradient id="paint2_linear_426_4191" x1="18.7262" y1="60.5417" x2="33.9142" y2="103.283" gradientUnits="userSpaceOnUse">
<stop stop-color="#BC6554"/>
<stop offset="0.195" stop-color="#CA7561"/>
<stop offset="0.485" stop-color="#E2AA9D"/>
<stop offset="0.73" stop-color="#A1503D"/>
<stop offset="0.955" stop-color="#AA5946"/>
</linearGradient>
<linearGradient id="paint3_linear_426_4191" x1="18.7262" y1="46.5417" x2="33.9142" y2="89.2827" gradientUnits="userSpaceOnUse">
<stop stop-color="#BC6554"/>
<stop offset="0.195" stop-color="#CA7561"/>
<stop offset="0.485" stop-color="#E2AA9D"/>
<stop offset="0.73" stop-color="#A1503D"/>
<stop offset="0.955" stop-color="#AA5946"/>
</linearGradient>
<linearGradient id="paint4_linear_426_4191" x1="18.7262" y1="32.5417" x2="33.9142" y2="75.2827" gradientUnits="userSpaceOnUse">
<stop stop-color="#BC6554"/>
<stop offset="0.195" stop-color="#CA7561"/>
<stop offset="0.485" stop-color="#E2AA9D"/>
<stop offset="0.73" stop-color="#A1503D"/>
<stop offset="0.955" stop-color="#AA5946"/>
</linearGradient>
<linearGradient id="paint5_linear_426_4191" x1="39.1" y1="18.4792" x2="60.1679" y2="42.8505" gradientUnits="userSpaceOnUse">
<stop stop-color="#BC6554"/>
<stop offset="0.195" stop-color="#CA7561"/>
<stop offset="0.485" stop-color="#E2AA9D"/>
<stop offset="0.73" stop-color="#A1503D"/>
<stop offset="0.955" stop-color="#AA5946"/>
</linearGradient>
</defs>
</svg>
