<svg width="100" height="100" viewBox="0 0 100 100" fill="none" xmlns="http://www.w3.org/2000/svg">
<path d="M100 49.8423L71.4341 62.1471L75 92.8979L50 74.4519L25 92.8979L28.5659 62.1471L0 49.8423L28.5659 37.5375L25 6.78674L50 25.2327L75 6.78675L71.4341 37.5375L100 49.8423Z" fill="url(#paint0_linear_426_4193)"/>
<path d="M96.7556 24.8646L76.6083 49.7291L96.7556 74.5937L63.1687 71.0471L49.7291 99.4583L36.2895 71.0471L2.70264 74.5937L22.8499 49.7291L2.70264 24.8646L36.2895 28.4111L49.7291 0L63.1687 28.4111L96.7556 24.8646Z" fill="url(#paint1_linear_426_4193)"/>
<path d="M49.9999 3.43298L90.0937 26.5811V72.8774L49.9999 96.0256L9.90614 72.8774V26.5811L49.9999 3.43298Z" fill="url(#paint2_linear_426_4193)"/>
<g filter="url(#filter0_i_426_4193)">
<path d="M50.0006 9.91437L84.4812 29.8218V69.6366L50.0006 89.544L15.52 69.6366V29.8218L50.0006 9.91437Z" fill="black" fill-opacity="0.48"/>
</g>
<g filter="url(#filter1_d_426_4193)">
<path d="M50.5 20L55.4271 27.7624L63.5 32.5L55.4271 37.2376L50.5 45L45.5729 37.2376L37.5 32.5L45.5729 27.7624L50.5 20Z" fill="url(#paint3_linear_426_4193)"/>
</g>
<g filter="url(#filter2_d_426_4193)">
<path d="M50.5 55L55.4271 62.7624L63.5 67.5L55.4271 72.2376L50.5 80L45.5729 72.2376L37.5 67.5L45.5729 62.7624L50.5 55Z" fill="url(#paint4_linear_426_4193)"/>
</g>
<defs>
<filter id="filter0_i_426_4193" x="15.52" y="9.91437" width="68.9614" height="83.6296" filterUnits="userSpaceOnUse" color-interpolation-filters="sRGB">
<feFlood flood-opacity="0" result="BackgroundImageFix"/>
<feBlend mode="normal" in="SourceGraphic" in2="BackgroundImageFix" result="shape"/>
<feColorMatrix in="SourceAlpha" type="matrix" values="0 0 0 0 0 0 0 0 0 0 0 0 0 0 0 0 0 0 127 0" result="hardAlpha"/>
<feOffset dy="4"/>
<feGaussianBlur stdDeviation="2"/>
<feComposite in2="hardAlpha" operator="arithmetic" k2="-1" k3="1"/>
<feColorMatrix type="matrix" values="0 0 0 0 0 0 0 0 0 0 0 0 0 0 0 0 0 0 0.25 0"/>
<feBlend mode="normal" in2="shape" result="effect1_innerShadow_426_4193"/>
</filter>
<filter id="filter1_d_426_4193" x="33.5" y="20" width="34" height="33" filterUnits="userSpaceOnUse" color-interpolation-filters="sRGB">
<feFlood flood-opacity="0" result="BackgroundImageFix"/>
<feColorMatrix in="SourceAlpha" type="matrix" values="0 0 0 0 0 0 0 0 0 0 0 0 0 0 0 0 0 0 127 0" result="hardAlpha"/>
<feOffset dy="4"/>
<feGaussianBlur stdDeviation="2"/>
<feComposite in2="hardAlpha" operator="out"/>
<feColorMatrix type="matrix" values="0 0 0 0 0 0 0 0 0 0 0 0 0 0 0 0 0 0 0.25 0"/>
<feBlend mode="normal" in2="BackgroundImageFix" result="effect1_dropShadow_426_4193"/>
<feBlend mode="normal" in="SourceGraphic" in2="effect1_dropShadow_426_4193" result="shape"/>
</filter>
<filter id="filter2_d_426_4193" x="33.5" y="55" width="34" height="33" filterUnits="userSpaceOnUse" color-interpolation-filters="sRGB">
<feFlood flood-opacity="0" result="BackgroundImageFix"/>
<feColorMatrix in="SourceAlpha" type="matrix" values="0 0 0 0 0 0 0 0 0 0 0 0 0 0 0 0 0 0 127 0" result="hardAlpha"/>
<feOffset dy="4"/>
<feGaussianBlur stdDeviation="2"/>
<feComposite in2="hardAlpha" operator="out"/>
<feColorMatrix type="matrix" values="0 0 0 0 0 0 0 0 0 0 0 0 0 0 0 0 0 0 0.25 0"/>
<feBlend mode="normal" in2="BackgroundImageFix" result="effect1_dropShadow_426_4193"/>
<feBlend mode="normal" in="SourceGraphic" in2="effect1_dropShadow_426_4193" result="shape"/>
</filter>
<linearGradient id="paint0_linear_426_4193" x1="2.5" y1="8.58072" x2="79.7379" y2="108.017" gradientUnits="userSpaceOnUse">
<stop stop-color="#BC6554"/>
<stop offset="0.195" stop-color="#CA7561"/>
<stop offset="0.485" stop-color="#E2AA9D"/>
<stop offset="0.73" stop-color="#A1503D"/>
<stop offset="0.955" stop-color="#AA5946"/>
</linearGradient>
<linearGradient id="paint1_linear_426_4193" x1="5.05396" y1="2.07205" x2="97.0231" y2="98.4876" gradientUnits="userSpaceOnUse">
<stop stop-color="#BC6554"/>
<stop offset="0.195" stop-color="#CA7561"/>
<stop offset="0.485" stop-color="#E2AA9D"/>
<stop offset="0.73" stop-color="#A1503D"/>
<stop offset="0.955" stop-color="#AA5946"/>
</linearGradient>
<linearGradient id="paint2_linear_426_4193" x1="6.01843" y1="5.36199" x2="91.2808" y2="99.8836" gradientUnits="userSpaceOnUse">
<stop stop-color="#BC6554"/>
<stop offset="0.195" stop-color="#CA7561"/>
<stop offset="0.485" stop-color="#E2AA9D"/>
<stop offset="0.73" stop-color="#A1503D"/>
<stop offset="0.955" stop-color="#AA5946"/>
</linearGradient>
<linearGradient id="paint3_linear_426_4193" x1="38.15" y1="20.5208" x2="61.0609" y2="46.9357" gradientUnits="userSpaceOnUse">
<stop stop-color="#BC6554"/>
<stop offset="0.195" stop-color="#CA7561"/>
<stop offset="0.485" stop-color="#E2AA9D"/>
<stop offset="0.73" stop-color="#A1503D"/>
<stop offset="0.955" stop-color="#AA5946"/>
</linearGradient>
<linearGradient id="paint4_linear_426_4193" x1="38.15" y1="55.5208" x2="61.0609" y2="81.9357" gradientUnits="userSpaceOnUse">
<stop stop-color="#BC6554"/>
<stop offset="0.195" stop-color="#CA7561"/>
<stop offset="0.485" stop-color="#E2AA9D"/>
<stop offset="0.73" stop-color="#A1503D"/>
<stop offset="0.955" stop-color="#AA5946"/>
</linearGradient>
</defs>
</svg>
