<svg width="100" height="100" viewBox="0 0 100 100" fill="none" xmlns="http://www.w3.org/2000/svg">
<path d="M100 49.6058L71.4341 61.7783L75 92.1984L50 73.9508L25 92.1984L28.5659 61.7783L0 49.6058L28.5659 37.4334L25 7.01324L50 25.2609L75 7.01325L71.4341 37.4334L100 49.6058Z" fill="url(#paint0_linear_426_4196)"/>
<path d="M97.2951 24.8646L77.1479 49.7291L97.2951 74.5937L63.7083 71.0471L50.2686 99.4583L36.829 71.0471L3.24219 74.5937L23.3894 49.7291L3.24219 24.8646L36.829 28.4111L50.2687 0L63.7083 28.4111L97.2951 24.8646Z" fill="url(#paint1_linear_426_4196)"/>
<path d="M49.9999 3.43298L90.0937 26.5811V72.8774L49.9999 96.0256L9.90614 72.8774V26.5811L49.9999 3.43298Z" fill="url(#paint2_linear_426_4196)"/>
<g filter="url(#filter0_i_426_4196)">
<path d="M50.0004 9.91437L84.481 29.8218V69.6366L50.0004 89.544L15.5197 69.6366V29.8218L50.0004 9.91437Z" fill="black" fill-opacity="0.48"/>
</g>
<path d="M20.6069 58.9884L51.1625 75.5487L81.718 58.9884V66.5022L51.1625 83.0625L20.6069 66.5022V58.9884Z" fill="url(#paint3_linear_426_4196)"/>
<path d="M20.6069 46.0254L51.1625 62.5857L81.718 46.0254V53.5392L51.1625 70.0995L20.6069 53.5392V46.0254Z" fill="url(#paint4_linear_426_4196)"/>
<path d="M20.6069 33.0626L51.1625 49.6229L81.718 33.0626V40.5763L51.1625 57.1366L20.6069 40.5763V33.0626Z" fill="url(#paint5_linear_426_4196)"/>
<g filter="url(#filter1_d_426_4196)">
<path d="M50.5 18L55.0481 25.1414L62.5 29.5L55.0481 33.8586L50.5 41L45.9519 33.8586L38.5 29.5L45.9519 25.1414L50.5 18Z" fill="url(#paint6_linear_426_4196)"/>
</g>
<defs>
<filter id="filter0_i_426_4196" x="15.5195" y="9.91437" width="68.9614" height="83.6296" filterUnits="userSpaceOnUse" color-interpolation-filters="sRGB">
<feFlood flood-opacity="0" result="BackgroundImageFix"/>
<feBlend mode="normal" in="SourceGraphic" in2="BackgroundImageFix" result="shape"/>
<feColorMatrix in="SourceAlpha" type="matrix" values="0 0 0 0 0 0 0 0 0 0 0 0 0 0 0 0 0 0 127 0" result="hardAlpha"/>
<feOffset dy="4"/>
<feGaussianBlur stdDeviation="2"/>
<feComposite in2="hardAlpha" operator="arithmetic" k2="-1" k3="1"/>
<feColorMatrix type="matrix" values="0 0 0 0 0 0 0 0 0 0 0 0 0 0 0 0 0 0 0.25 0"/>
<feBlend mode="normal" in2="shape" result="effect1_innerShadow_426_4196"/>
</filter>
<filter id="filter1_d_426_4196" x="34.5" y="18" width="32" height="31" filterUnits="userSpaceOnUse" color-interpolation-filters="sRGB">
<feFlood flood-opacity="0" result="BackgroundImageFix"/>
<feColorMatrix in="SourceAlpha" type="matrix" values="0 0 0 0 0 0 0 0 0 0 0 0 0 0 0 0 0 0 127 0" result="hardAlpha"/>
<feOffset dy="4"/>
<feGaussianBlur stdDeviation="2"/>
<feComposite in2="hardAlpha" operator="out"/>
<feColorMatrix type="matrix" values="0 0 0 0 0 0 0 0 0 0 0 0 0 0 0 0 0 0 0.25 0"/>
<feBlend mode="normal" in2="BackgroundImageFix" result="effect1_dropShadow_426_4196"/>
<feBlend mode="normal" in="SourceGraphic" in2="effect1_dropShadow_426_4196" result="shape"/>
</filter>
<linearGradient id="paint0_linear_426_4196" x1="2.5" y1="8.78793" x2="78.6992" y2="107.953" gradientUnits="userSpaceOnUse">
<stop stop-color="#BC6554"/>
<stop offset="0.195" stop-color="#CA7561"/>
<stop offset="0.485" stop-color="#E2AA9D"/>
<stop offset="0.73" stop-color="#A1503D"/>
<stop offset="0.955" stop-color="#AA5946"/>
</linearGradient>
<linearGradient id="paint1_linear_426_4196" x1="5.59351" y1="2.07205" x2="97.5626" y2="98.4876" gradientUnits="userSpaceOnUse">
<stop stop-color="#BC6554"/>
<stop offset="0.195" stop-color="#CA7561"/>
<stop offset="0.485" stop-color="#E2AA9D"/>
<stop offset="0.73" stop-color="#A1503D"/>
<stop offset="0.955" stop-color="#AA5946"/>
</linearGradient>
<linearGradient id="paint2_linear_426_4196" x1="6.01843" y1="5.36199" x2="91.2808" y2="99.8836" gradientUnits="userSpaceOnUse">
<stop stop-color="#BC6554"/>
<stop offset="0.195" stop-color="#CA7561"/>
<stop offset="0.485" stop-color="#E2AA9D"/>
<stop offset="0.73" stop-color="#A1503D"/>
<stop offset="0.955" stop-color="#AA5946"/>
</linearGradient>
<linearGradient id="paint3_linear_426_4196" x1="22.1347" y1="59.4899" x2="36.1977" y2="99.0649" gradientUnits="userSpaceOnUse">
<stop stop-color="#BC6554"/>
<stop offset="0.195" stop-color="#CA7561"/>
<stop offset="0.485" stop-color="#E2AA9D"/>
<stop offset="0.73" stop-color="#A1503D"/>
<stop offset="0.955" stop-color="#AA5946"/>
</linearGradient>
<linearGradient id="paint4_linear_426_4196" x1="22.1347" y1="46.5269" x2="36.1977" y2="86.1019" gradientUnits="userSpaceOnUse">
<stop stop-color="#BC6554"/>
<stop offset="0.195" stop-color="#CA7561"/>
<stop offset="0.485" stop-color="#E2AA9D"/>
<stop offset="0.73" stop-color="#A1503D"/>
<stop offset="0.955" stop-color="#AA5946"/>
</linearGradient>
<linearGradient id="paint5_linear_426_4196" x1="22.1347" y1="33.5641" x2="36.1977" y2="73.1391" gradientUnits="userSpaceOnUse">
<stop stop-color="#BC6554"/>
<stop offset="0.195" stop-color="#CA7561"/>
<stop offset="0.485" stop-color="#E2AA9D"/>
<stop offset="0.73" stop-color="#A1503D"/>
<stop offset="0.955" stop-color="#AA5946"/>
</linearGradient>
<linearGradient id="paint6_linear_426_4196" x1="39.1" y1="18.4792" x2="60.1679" y2="42.8505" gradientUnits="userSpaceOnUse">
<stop stop-color="#BC6554"/>
<stop offset="0.195" stop-color="#CA7561"/>
<stop offset="0.485" stop-color="#E2AA9D"/>
<stop offset="0.73" stop-color="#A1503D"/>
<stop offset="0.955" stop-color="#AA5946"/>
</linearGradient>
</defs>
</svg>
