<svg width="100" height="100" viewBox="0 0 100 100" fill="none" xmlns="http://www.w3.org/2000/svg">
<path d="M89.5762 11.5L78.3275 49L89.5762 86.5L52.0762 75.2514L14.5762 86.5L25.8248 49L14.5762 11.5L52.0762 22.7487L89.5762 11.5Z" fill="url(#paint0_linear_749_9151)"/>
<path d="M50 0L100 50L50 100L0 50L50 0Z" fill="url(#paint1_linear_749_9151)"/>
<g filter="url(#filter0_i_749_9151)">
<path d="M50 7L93 50L50 93L7 50L50 7Z" fill="black" fill-opacity="0.48"/>
</g>
<g filter="url(#filter1_d_749_9151)">
<path d="M50.1523 25L54.3214 31.8309L61.1523 36L54.3214 40.1691L50.1523 47L45.9832 40.1691L39.1523 36L45.9832 31.8309L50.1523 25Z" fill="url(#paint2_linear_749_9151)"/>
</g>
<path d="M19.5 45.5389L50 75.5L80.539 45.5L85.5 51.0909L50 86L14.5 51.0909L19.5 45.5389Z" fill="url(#paint3_linear_749_9151)"/>
<path d="M27.4092 36.9479L49.9998 59L72.6297 36.9091L77.5907 42.5L49.9998 69.5L22.4092 42.4999L27.4092 36.9479Z" fill="url(#paint4_linear_749_9151)"/>
<defs>
<filter id="filter0_i_749_9151" x="7" y="7" width="86" height="90" filterUnits="userSpaceOnUse" color-interpolation-filters="sRGB">
<feFlood flood-opacity="0" result="BackgroundImageFix"/>
<feBlend mode="normal" in="SourceGraphic" in2="BackgroundImageFix" result="shape"/>
<feColorMatrix in="SourceAlpha" type="matrix" values="0 0 0 0 0 0 0 0 0 0 0 0 0 0 0 0 0 0 127 0" result="hardAlpha"/>
<feOffset dy="4"/>
<feGaussianBlur stdDeviation="2"/>
<feComposite in2="hardAlpha" operator="arithmetic" k2="-1" k3="1"/>
<feColorMatrix type="matrix" values="0 0 0 0 0 0 0 0 0 0 0 0 0 0 0 0 0 0 0.25 0"/>
<feBlend mode="normal" in2="shape" result="effect1_innerShadow_749_9151"/>
</filter>
<filter id="filter1_d_749_9151" x="35.1523" y="25" width="30" height="30" filterUnits="userSpaceOnUse" color-interpolation-filters="sRGB">
<feFlood flood-opacity="0" result="BackgroundImageFix"/>
<feColorMatrix in="SourceAlpha" type="matrix" values="0 0 0 0 0 0 0 0 0 0 0 0 0 0 0 0 0 0 127 0" result="hardAlpha"/>
<feOffset dy="4"/>
<feGaussianBlur stdDeviation="2"/>
<feComposite in2="hardAlpha" operator="out"/>
<feColorMatrix type="matrix" values="0 0 0 0 0 0 0 0 0 0 0 0 0 0 0 0 0 0 0.25 0"/>
<feBlend mode="normal" in2="BackgroundImageFix" result="effect1_dropShadow_749_9151"/>
<feBlend mode="normal" in="SourceGraphic" in2="effect1_dropShadow_749_9151" result="shape"/>
</filter>
<linearGradient id="paint0_linear_749_9151" x1="26.4512" y1="22.125" x2="78.3262" y2="86.5" gradientUnits="userSpaceOnUse">
<stop stop-color="#B6947E"/>
<stop offset="0.545" stop-color="#F8DAC8"/>
<stop offset="0.5451" stop-color="#F8DCCB"/>
<stop offset="1" stop-color="#B6947E"/>
</linearGradient>
<linearGradient id="paint1_linear_749_9151" x1="15.8333" y1="14.1667" x2="85" y2="100" gradientUnits="userSpaceOnUse">
<stop stop-color="#B6947E"/>
<stop offset="0.545" stop-color="#F8DAC8"/>
<stop offset="0.5451" stop-color="#F8DCCB"/>
<stop offset="1" stop-color="#B6947E"/>
</linearGradient>
<linearGradient id="paint2_linear_749_9151" x1="42.6357" y1="28.1167" x2="57.8523" y2="47" gradientUnits="userSpaceOnUse">
<stop stop-color="#B6947E"/>
<stop offset="0.545" stop-color="#F8DAC8"/>
<stop offset="0.5451" stop-color="#F8DCCB"/>
<stop offset="1" stop-color="#B6947E"/>
</linearGradient>
<linearGradient id="paint3_linear_749_9151" x1="25.7417" y1="51.2375" x2="47.4995" y2="98.572" gradientUnits="userSpaceOnUse">
<stop stop-color="#B6947E"/>
<stop offset="0.545" stop-color="#F8DAC8"/>
<stop offset="0.5451" stop-color="#F8DCCB"/>
<stop offset="1" stop-color="#B6947E"/>
</linearGradient>
<linearGradient id="paint4_linear_749_9151" x1="31.1463" y1="41.5261" x2="49.0499" y2="79.1441" gradientUnits="userSpaceOnUse">
<stop stop-color="#B6947E"/>
<stop offset="0.545" stop-color="#F8DAC8"/>
<stop offset="0.5451" stop-color="#F8DCCB"/>
<stop offset="1" stop-color="#B6947E"/>
</linearGradient>
</defs>
</svg>
