<svg width="100" height="100" viewBox="0 0 100 100" fill="none" xmlns="http://www.w3.org/2000/svg">
<path d="M87.5 4L76.2513 50L87.5 96L50 82.2016L12.5 96L23.7487 50L12.5 4L50 17.7984L87.5 4Z" fill="url(#paint0_linear_749_9158)"/>
<path d="M50 0L93.3013 25V75L50 100L6.69873 75V25L50 0Z" fill="url(#paint1_linear_749_9158)"/>
<g filter="url(#filter0_i_749_9158)">
<path d="M50 7L87.2391 28.5V71.5L50 93L12.7609 71.5V28.5L50 7Z" fill="black" fill-opacity="0.48"/>
</g>
<g filter="url(#filter1_d_749_9158)">
<path d="M49.5 34L55.3746 43.6254L65 49.5L55.3746 55.3746L49.5 65L43.6254 55.3746L34 49.5L43.6254 43.6254L49.5 34Z" fill="url(#paint2_linear_749_9158)"/>
</g>
<defs>
<filter id="filter0_i_749_9158" x="12.7607" y="7" width="74.4785" height="90" filterUnits="userSpaceOnUse" color-interpolation-filters="sRGB">
<feFlood flood-opacity="0" result="BackgroundImageFix"/>
<feBlend mode="normal" in="SourceGraphic" in2="BackgroundImageFix" result="shape"/>
<feColorMatrix in="SourceAlpha" type="matrix" values="0 0 0 0 0 0 0 0 0 0 0 0 0 0 0 0 0 0 127 0" result="hardAlpha"/>
<feOffset dy="4"/>
<feGaussianBlur stdDeviation="2"/>
<feComposite in2="hardAlpha" operator="arithmetic" k2="-1" k3="1"/>
<feColorMatrix type="matrix" values="0 0 0 0 0 0 0 0 0 0 0 0 0 0 0 0 0 0 0.25 0"/>
<feBlend mode="normal" in2="shape" result="effect1_innerShadow_749_9158"/>
</filter>
<filter id="filter1_d_749_9158" x="30" y="34" width="39" height="39" filterUnits="userSpaceOnUse" color-interpolation-filters="sRGB">
<feFlood flood-opacity="0" result="BackgroundImageFix"/>
<feColorMatrix in="SourceAlpha" type="matrix" values="0 0 0 0 0 0 0 0 0 0 0 0 0 0 0 0 0 0 127 0" result="hardAlpha"/>
<feOffset dy="4"/>
<feGaussianBlur stdDeviation="2"/>
<feComposite in2="hardAlpha" operator="out"/>
<feColorMatrix type="matrix" values="0 0 0 0 0 0 0 0 0 0 0 0 0 0 0 0 0 0 0.25 0"/>
<feBlend mode="normal" in2="BackgroundImageFix" result="effect1_dropShadow_749_9158"/>
<feBlend mode="normal" in="SourceGraphic" in2="effect1_dropShadow_749_9158" result="shape"/>
</filter>
<linearGradient id="paint0_linear_749_9158" x1="24.375" y1="17.0333" x2="89.4926" y2="82.9099" gradientUnits="userSpaceOnUse">
<stop stop-color="#B6947E"/>
<stop offset="0.545" stop-color="#F8DAC8"/>
<stop offset="0.5451" stop-color="#F8DCCB"/>
<stop offset="1" stop-color="#B6947E"/>
</linearGradient>
<linearGradient id="paint1_linear_749_9158" x1="15.8333" y1="14.1667" x2="85" y2="100" gradientUnits="userSpaceOnUse">
<stop stop-color="#B6947E"/>
<stop offset="0.545" stop-color="#F8DAC8"/>
<stop offset="0.5451" stop-color="#F8DCCB"/>
<stop offset="1" stop-color="#B6947E"/>
</linearGradient>
<linearGradient id="paint2_linear_749_9158" x1="38.9083" y1="38.3917" x2="60.35" y2="65" gradientUnits="userSpaceOnUse">
<stop stop-color="#B6947E"/>
<stop offset="0.545" stop-color="#F8DAC8"/>
<stop offset="0.5451" stop-color="#F8DCCB"/>
<stop offset="1" stop-color="#B6947E"/>
</linearGradient>
</defs>
</svg>
