<svg width="100" height="100" viewBox="0 0 100 100" fill="none" xmlns="http://www.w3.org/2000/svg">
<path d="M100 49.1622L71.4341 61.5372L75 92.4634L50 73.9122L25 92.4634L28.5659 61.5372L0 49.1622L28.5659 36.7872L25 5.8609L50 24.4122L75 5.8609L71.4341 36.7872L100 49.1622Z" fill="url(#paint0_linear_749_9205)"/>
<path d="M96.4841 24.8646L76.5684 49.7291L96.4841 74.5937L63.2833 71.0471L49.9981 99.4583L36.713 71.0471L3.51221 74.5937L23.4279 49.7291L3.51221 24.8646L36.713 28.4111L49.9981 0L63.2833 28.4111L96.4841 24.8646Z" fill="url(#paint1_linear_749_9205)"/>
<path d="M49.9999 3.43298L90.0937 26.5811V72.8774L49.9999 96.0256L9.90614 72.8774V26.5811L49.9999 3.43298Z" fill="url(#paint2_linear_749_9205)"/>
<g filter="url(#filter0_i_749_9205)">
<path d="M50.0004 9.91437L84.481 29.8218V69.6366L50.0004 89.544L15.5197 69.6366V29.8218L50.0004 9.91437Z" fill="black" fill-opacity="0.48"/>
</g>
<g filter="url(#filter1_d_749_9205)">
<path d="M49.7725 25.655L54.5101 33.1299L62.2725 37.6921L54.5101 42.2542L49.7725 49.7291L45.0348 42.2542L37.2725 37.6921L45.0348 33.1299L49.7725 25.655Z" fill="url(#paint3_linear_749_9205)"/>
</g>
<g filter="url(#filter2_d_749_9205)">
<path d="M34.9585 46.0254L39.6961 53.5003L47.4585 58.0624L39.6961 62.6246L34.9585 70.0995L30.2209 62.6246L22.4585 58.0624L30.2209 53.5003L34.9585 46.0254Z" fill="url(#paint4_linear_749_9205)"/>
</g>
<g filter="url(#filter3_d_749_9205)">
<path d="M65.5137 46.0254L70.2513 53.5003L78.0137 58.0624L70.2513 62.6246L65.5137 70.0995L60.7761 62.6246L53.0137 58.0624L60.7761 53.5003L65.5137 46.0254Z" fill="url(#paint5_linear_749_9205)"/>
</g>
<defs>
<filter id="filter0_i_749_9205" x="15.5195" y="9.91437" width="68.9614" height="83.6296" filterUnits="userSpaceOnUse" color-interpolation-filters="sRGB">
<feFlood flood-opacity="0" result="BackgroundImageFix"/>
<feBlend mode="normal" in="SourceGraphic" in2="BackgroundImageFix" result="shape"/>
<feColorMatrix in="SourceAlpha" type="matrix" values="0 0 0 0 0 0 0 0 0 0 0 0 0 0 0 0 0 0 127 0" result="hardAlpha"/>
<feOffset dy="4"/>
<feGaussianBlur stdDeviation="2"/>
<feComposite in2="hardAlpha" operator="arithmetic" k2="-1" k3="1"/>
<feColorMatrix type="matrix" values="0 0 0 0 0 0 0 0 0 0 0 0 0 0 0 0 0 0 0.25 0"/>
<feBlend mode="normal" in2="shape" result="effect1_innerShadow_749_9205"/>
</filter>
<filter id="filter1_d_749_9205" x="33.2725" y="25.655" width="33" height="32.0741" filterUnits="userSpaceOnUse" color-interpolation-filters="sRGB">
<feFlood flood-opacity="0" result="BackgroundImageFix"/>
<feColorMatrix in="SourceAlpha" type="matrix" values="0 0 0 0 0 0 0 0 0 0 0 0 0 0 0 0 0 0 127 0" result="hardAlpha"/>
<feOffset dy="4"/>
<feGaussianBlur stdDeviation="2"/>
<feComposite in2="hardAlpha" operator="out"/>
<feColorMatrix type="matrix" values="0 0 0 0 0 0 0 0 0 0 0 0 0 0 0 0 0 0 0.25 0"/>
<feBlend mode="normal" in2="BackgroundImageFix" result="effect1_dropShadow_749_9205"/>
<feBlend mode="normal" in="SourceGraphic" in2="effect1_dropShadow_749_9205" result="shape"/>
</filter>
<filter id="filter2_d_749_9205" x="18.4585" y="46.0254" width="33" height="32.0741" filterUnits="userSpaceOnUse" color-interpolation-filters="sRGB">
<feFlood flood-opacity="0" result="BackgroundImageFix"/>
<feColorMatrix in="SourceAlpha" type="matrix" values="0 0 0 0 0 0 0 0 0 0 0 0 0 0 0 0 0 0 127 0" result="hardAlpha"/>
<feOffset dy="4"/>
<feGaussianBlur stdDeviation="2"/>
<feComposite in2="hardAlpha" operator="out"/>
<feColorMatrix type="matrix" values="0 0 0 0 0 0 0 0 0 0 0 0 0 0 0 0 0 0 0.25 0"/>
<feBlend mode="normal" in2="BackgroundImageFix" result="effect1_dropShadow_749_9205"/>
<feBlend mode="normal" in="SourceGraphic" in2="effect1_dropShadow_749_9205" result="shape"/>
</filter>
<filter id="filter3_d_749_9205" x="49.0137" y="46.0254" width="33" height="32.0741" filterUnits="userSpaceOnUse" color-interpolation-filters="sRGB">
<feFlood flood-opacity="0" result="BackgroundImageFix"/>
<feColorMatrix in="SourceAlpha" type="matrix" values="0 0 0 0 0 0 0 0 0 0 0 0 0 0 0 0 0 0 127 0" result="hardAlpha"/>
<feOffset dy="4"/>
<feGaussianBlur stdDeviation="2"/>
<feComposite in2="hardAlpha" operator="out"/>
<feColorMatrix type="matrix" values="0 0 0 0 0 0 0 0 0 0 0 0 0 0 0 0 0 0 0.25 0"/>
<feBlend mode="normal" in2="BackgroundImageFix" result="effect1_dropShadow_749_9205"/>
<feBlend mode="normal" in="SourceGraphic" in2="effect1_dropShadow_749_9205" result="shape"/>
</filter>
<linearGradient id="paint0_linear_749_9205" x1="15.8333" y1="18.1296" x2="73.3716" y2="100.579" gradientUnits="userSpaceOnUse">
<stop stop-color="#B6947E"/>
<stop offset="0.545" stop-color="#F8DAC8"/>
<stop offset="0.5451" stop-color="#F8DCCB"/>
<stop offset="1" stop-color="#B6947E"/>
</linearGradient>
<linearGradient id="paint1_linear_749_9205" x1="18.2328" y1="14.0899" x2="87.8654" y2="94.866" gradientUnits="userSpaceOnUse">
<stop stop-color="#B6947E"/>
<stop offset="0.545" stop-color="#F8DAC8"/>
<stop offset="0.5451" stop-color="#F8DCCB"/>
<stop offset="1" stop-color="#B6947E"/>
</linearGradient>
<linearGradient id="paint2_linear_749_9205" x1="18.3641" y1="16.5503" x2="82.4073" y2="96.0256" gradientUnits="userSpaceOnUse">
<stop stop-color="#B6947E"/>
<stop offset="0.545" stop-color="#F8DAC8"/>
<stop offset="0.5451" stop-color="#F8DCCB"/>
<stop offset="1" stop-color="#B6947E"/>
</linearGradient>
<linearGradient id="paint3_linear_749_9205" x1="41.2308" y1="29.0655" x2="57.7378" y2="50.338" gradientUnits="userSpaceOnUse">
<stop stop-color="#B6947E"/>
<stop offset="0.545" stop-color="#F8DAC8"/>
<stop offset="0.5451" stop-color="#F8DCCB"/>
<stop offset="1" stop-color="#B6947E"/>
</linearGradient>
<linearGradient id="paint4_linear_749_9205" x1="26.4168" y1="49.4359" x2="42.9238" y2="70.7083" gradientUnits="userSpaceOnUse">
<stop stop-color="#B6947E"/>
<stop offset="0.545" stop-color="#F8DAC8"/>
<stop offset="0.5451" stop-color="#F8DCCB"/>
<stop offset="1" stop-color="#B6947E"/>
</linearGradient>
<linearGradient id="paint5_linear_749_9205" x1="56.972" y1="49.4359" x2="73.479" y2="70.7083" gradientUnits="userSpaceOnUse">
<stop stop-color="#B6947E"/>
<stop offset="0.545" stop-color="#F8DAC8"/>
<stop offset="0.5451" stop-color="#F8DCCB"/>
<stop offset="1" stop-color="#B6947E"/>
</linearGradient>
</defs>
</svg>
