<svg width="100" height="100" viewBox="0 0 100 100" fill="none" xmlns="http://www.w3.org/2000/svg">
<path d="M100 49.8423L71.4341 62.1471L75 92.8979L50 74.4519L25 92.8979L28.5659 62.1471L0 49.8423L28.5659 37.5375L25 6.78674L50 25.2327L75 6.78675L71.4341 37.5375L100 49.8423Z" fill="url(#paint0_linear_749_9213)"/>
<path d="M96.4841 24.8646L76.5684 49.7291L96.4841 74.5937L63.2833 71.0471L49.9981 99.4583L36.713 71.0471L3.51221 74.5937L23.4279 49.7291L3.51221 24.8646L36.713 28.4111L49.9981 0L63.2833 28.4111L96.4841 24.8646Z" fill="url(#paint1_linear_749_9213)"/>
<path d="M49.9999 3.43298L90.0937 26.5811V72.8774L49.9999 96.0256L9.90614 72.8774V26.5811L49.9999 3.43298Z" fill="url(#paint2_linear_749_9213)"/>
<g filter="url(#filter0_i_749_9213)">
<path d="M50.0004 9.91437L84.481 29.8218V69.6366L50.0004 89.544L15.5197 69.6366V29.8218L50.0004 9.91437Z" fill="black" fill-opacity="0.48"/>
</g>
<g filter="url(#filter1_d_749_9213)">
<path d="M50.5 20L55.4271 27.7624L63.5 32.5L55.4271 37.2376L50.5 45L45.5729 37.2376L37.5 32.5L45.5729 27.7624L50.5 20Z" fill="url(#paint3_linear_749_9213)"/>
</g>
<g filter="url(#filter2_d_749_9213)">
<path d="M50.5 55L55.4271 62.7624L63.5 67.5L55.4271 72.2376L50.5 80L45.5729 72.2376L37.5 67.5L45.5729 62.7624L50.5 55Z" fill="url(#paint4_linear_749_9213)"/>
</g>
<g filter="url(#filter3_d_749_9213)">
<path d="M35 37L40.1166 44.7624L48.5 49.5L40.1166 54.2376L35 62L29.8834 54.2376L21.5 49.5L29.8834 44.7624L35 37Z" fill="url(#paint5_linear_749_9213)"/>
</g>
<g filter="url(#filter4_d_749_9213)">
<path d="M66 37L71.1166 44.7624L79.5 49.5L71.1166 54.2376L66 62L60.8834 54.2376L52.5 49.5L60.8834 44.7624L66 37Z" fill="url(#paint6_linear_749_9213)"/>
</g>
<defs>
<filter id="filter0_i_749_9213" x="15.5195" y="9.91437" width="68.9614" height="83.6296" filterUnits="userSpaceOnUse" color-interpolation-filters="sRGB">
<feFlood flood-opacity="0" result="BackgroundImageFix"/>
<feBlend mode="normal" in="SourceGraphic" in2="BackgroundImageFix" result="shape"/>
<feColorMatrix in="SourceAlpha" type="matrix" values="0 0 0 0 0 0 0 0 0 0 0 0 0 0 0 0 0 0 127 0" result="hardAlpha"/>
<feOffset dy="4"/>
<feGaussianBlur stdDeviation="2"/>
<feComposite in2="hardAlpha" operator="arithmetic" k2="-1" k3="1"/>
<feColorMatrix type="matrix" values="0 0 0 0 0 0 0 0 0 0 0 0 0 0 0 0 0 0 0.25 0"/>
<feBlend mode="normal" in2="shape" result="effect1_innerShadow_749_9213"/>
</filter>
<filter id="filter1_d_749_9213" x="33.5" y="20" width="34" height="33" filterUnits="userSpaceOnUse" color-interpolation-filters="sRGB">
<feFlood flood-opacity="0" result="BackgroundImageFix"/>
<feColorMatrix in="SourceAlpha" type="matrix" values="0 0 0 0 0 0 0 0 0 0 0 0 0 0 0 0 0 0 127 0" result="hardAlpha"/>
<feOffset dy="4"/>
<feGaussianBlur stdDeviation="2"/>
<feComposite in2="hardAlpha" operator="out"/>
<feColorMatrix type="matrix" values="0 0 0 0 0 0 0 0 0 0 0 0 0 0 0 0 0 0 0.25 0"/>
<feBlend mode="normal" in2="BackgroundImageFix" result="effect1_dropShadow_749_9213"/>
<feBlend mode="normal" in="SourceGraphic" in2="effect1_dropShadow_749_9213" result="shape"/>
</filter>
<filter id="filter2_d_749_9213" x="33.5" y="55" width="34" height="33" filterUnits="userSpaceOnUse" color-interpolation-filters="sRGB">
<feFlood flood-opacity="0" result="BackgroundImageFix"/>
<feColorMatrix in="SourceAlpha" type="matrix" values="0 0 0 0 0 0 0 0 0 0 0 0 0 0 0 0 0 0 127 0" result="hardAlpha"/>
<feOffset dy="4"/>
<feGaussianBlur stdDeviation="2"/>
<feComposite in2="hardAlpha" operator="out"/>
<feColorMatrix type="matrix" values="0 0 0 0 0 0 0 0 0 0 0 0 0 0 0 0 0 0 0.25 0"/>
<feBlend mode="normal" in2="BackgroundImageFix" result="effect1_dropShadow_749_9213"/>
<feBlend mode="normal" in="SourceGraphic" in2="effect1_dropShadow_749_9213" result="shape"/>
</filter>
<filter id="filter3_d_749_9213" x="17.5" y="37" width="35" height="33" filterUnits="userSpaceOnUse" color-interpolation-filters="sRGB">
<feFlood flood-opacity="0" result="BackgroundImageFix"/>
<feColorMatrix in="SourceAlpha" type="matrix" values="0 0 0 0 0 0 0 0 0 0 0 0 0 0 0 0 0 0 127 0" result="hardAlpha"/>
<feOffset dy="4"/>
<feGaussianBlur stdDeviation="2"/>
<feComposite in2="hardAlpha" operator="out"/>
<feColorMatrix type="matrix" values="0 0 0 0 0 0 0 0 0 0 0 0 0 0 0 0 0 0 0.25 0"/>
<feBlend mode="normal" in2="BackgroundImageFix" result="effect1_dropShadow_749_9213"/>
<feBlend mode="normal" in="SourceGraphic" in2="effect1_dropShadow_749_9213" result="shape"/>
</filter>
<filter id="filter4_d_749_9213" x="48.5" y="37" width="35" height="33" filterUnits="userSpaceOnUse" color-interpolation-filters="sRGB">
<feFlood flood-opacity="0" result="BackgroundImageFix"/>
<feColorMatrix in="SourceAlpha" type="matrix" values="0 0 0 0 0 0 0 0 0 0 0 0 0 0 0 0 0 0 127 0" result="hardAlpha"/>
<feOffset dy="4"/>
<feGaussianBlur stdDeviation="2"/>
<feComposite in2="hardAlpha" operator="out"/>
<feColorMatrix type="matrix" values="0 0 0 0 0 0 0 0 0 0 0 0 0 0 0 0 0 0 0.25 0"/>
<feBlend mode="normal" in2="BackgroundImageFix" result="effect1_dropShadow_749_9213"/>
<feBlend mode="normal" in="SourceGraphic" in2="effect1_dropShadow_749_9213" result="shape"/>
</filter>
<linearGradient id="paint0_linear_749_9213" x1="15.8333" y1="18.9858" x2="72.932" y2="101.272" gradientUnits="userSpaceOnUse">
<stop stop-color="#B6947E"/>
<stop offset="0.545" stop-color="#F8DAC8"/>
<stop offset="0.5451" stop-color="#F8DCCB"/>
<stop offset="1" stop-color="#B6947E"/>
</linearGradient>
<linearGradient id="paint1_linear_749_9213" x1="18.2328" y1="14.0899" x2="87.8654" y2="94.866" gradientUnits="userSpaceOnUse">
<stop stop-color="#B6947E"/>
<stop offset="0.545" stop-color="#F8DAC8"/>
<stop offset="0.5451" stop-color="#F8DCCB"/>
<stop offset="1" stop-color="#B6947E"/>
</linearGradient>
<linearGradient id="paint2_linear_749_9213" x1="18.3641" y1="16.5503" x2="82.4073" y2="96.0256" gradientUnits="userSpaceOnUse">
<stop stop-color="#B6947E"/>
<stop offset="0.545" stop-color="#F8DAC8"/>
<stop offset="0.5451" stop-color="#F8DCCB"/>
<stop offset="1" stop-color="#B6947E"/>
</linearGradient>
<linearGradient id="paint3_linear_749_9213" x1="41.6167" y1="23.5417" x2="58.7522" y2="45.6569" gradientUnits="userSpaceOnUse">
<stop stop-color="#B6947E"/>
<stop offset="0.545" stop-color="#F8DAC8"/>
<stop offset="0.5451" stop-color="#F8DCCB"/>
<stop offset="1" stop-color="#B6947E"/>
</linearGradient>
<linearGradient id="paint4_linear_749_9213" x1="41.6167" y1="58.5417" x2="58.7522" y2="80.6569" gradientUnits="userSpaceOnUse">
<stop stop-color="#B6947E"/>
<stop offset="0.545" stop-color="#F8DAC8"/>
<stop offset="0.5451" stop-color="#F8DCCB"/>
<stop offset="1" stop-color="#B6947E"/>
</linearGradient>
<linearGradient id="paint5_linear_749_9213" x1="25.775" y1="40.5417" x2="42.7386" y2="63.277" gradientUnits="userSpaceOnUse">
<stop stop-color="#B6947E"/>
<stop offset="0.545" stop-color="#F8DAC8"/>
<stop offset="0.5451" stop-color="#F8DCCB"/>
<stop offset="1" stop-color="#B6947E"/>
</linearGradient>
<linearGradient id="paint6_linear_749_9213" x1="56.775" y1="40.5417" x2="73.7386" y2="63.277" gradientUnits="userSpaceOnUse">
<stop stop-color="#B6947E"/>
<stop offset="0.545" stop-color="#F8DAC8"/>
<stop offset="0.5451" stop-color="#F8DCCB"/>
<stop offset="1" stop-color="#B6947E"/>
</linearGradient>
</defs>
</svg>
